<?xml version="1.0" encoding="UTF-8" standalone="no"?>
<svg
   xmlns:dc="http://purl.org/dc/elements/1.1/"
   xmlns:cc="http://creativecommons.org/ns#"
   xmlns:rdf="http://www.w3.org/1999/02/22-rdf-syntax-ns#"
   xmlns:svg="http://www.w3.org/2000/svg"
   xmlns="http://www.w3.org/2000/svg"
   xmlns:sodipodi="http://sodipodi.sourceforge.net/DTD/sodipodi-0.dtd"
   xmlns:inkscape="http://www.inkscape.org/namespaces/inkscape"
   sodipodi:docname="fondo_llama.svg"
   inkscape:version="1.0 (4035a4fb49, 2020-05-01)"
   id="svg1042"
   version="1.1"
   viewBox="0 0 210 297"
   height="297mm"
   width="210mm">
  <defs
     id="defs1036">
    <filter
       id="filter1691"
       inkscape:label="Drop Shadow"
       style="color-interpolation-filters:sRGB;">
      <feFlood
         id="feFlood1681"
         result="flood"
         flood-color="rgb(0,0,0)"
         flood-opacity="0.20000000000000001" />
      <feComposite
         id="feComposite1683"
         result="composite1"
         operator="out"
         in2="SourceGraphic"
         in="flood" />
      <feGaussianBlur
         id="feGaussianBlur1685"
         result="blur"
         stdDeviation="4.19162"
         in="composite1" />
      <feOffset
         id="feOffset1687"
         result="offset"
         dy="0"
         dx="0" />
      <feComposite
         id="feComposite1689"
         result="composite2"
         operator="atop"
         in2="SourceGraphic"
         in="offset" />
    </filter>
    <filter
       id="filter1703"
       inkscape:label="Drop Shadow"
       style="color-interpolation-filters:sRGB;">
      <feFlood
         id="feFlood1693"
         result="flood"
         flood-color="rgb(0,0,0)"
         flood-opacity="0.25" />
      <feComposite
         id="feComposite1695"
         result="composite1"
         operator="out"
         in2="SourceGraphic"
         in="flood" />
      <feGaussianBlur
         id="feGaussianBlur1697"
         result="blur"
         stdDeviation="4.19162"
         in="composite1" />
      <feOffset
         id="feOffset1699"
         result="offset"
         dy="0"
         dx="0" />
      <feComposite
         id="feComposite1701"
         result="composite2"
         operator="atop"
         in2="SourceGraphic"
         in="offset" />
    </filter>
    <filter
       id="filter1715"
       inkscape:label="Drop Shadow"
       style="color-interpolation-filters:sRGB;">
      <feFlood
         id="feFlood1705"
         result="flood"
         flood-color="rgb(0,0,0)"
         flood-opacity="0.29999999999999999" />
      <feComposite
         id="feComposite1707"
         result="composite1"
         operator="out"
         in2="SourceGraphic"
         in="flood" />
      <feGaussianBlur
         id="feGaussianBlur1709"
         result="blur"
         stdDeviation="4.19162"
         in="composite1" />
      <feOffset
         id="feOffset1711"
         result="offset"
         dy="0"
         dx="0" />
      <feComposite
         id="feComposite1713"
         result="composite2"
         operator="atop"
         in2="SourceGraphic"
         in="offset" />
    </filter>
  </defs>
  <sodipodi:namedview
     inkscape:window-maximized="1"
     inkscape:window-y="-8"
     inkscape:window-x="1272"
     inkscape:window-height="1027"
     inkscape:window-width="1920"
     inkscape:object-nodes="false"
     showgrid="false"
     inkscape:document-rotation="0"
     inkscape:current-layer="layer1"
     inkscape:document-units="mm"
     inkscape:cy="382.37224"
     inkscape:cx="396.85039"
     inkscape:zoom="0.67081229"
     inkscape:pageshadow="2"
     inkscape:pageopacity="0"
     borderopacity="1.0"
     bordercolor="#666666"
     pagecolor="#474747"
     id="base" />
  <metadata
     id="metadata1039">
    <rdf:RDF>
      <cc:Work
         rdf:about="">
        <dc:format>image/svg+xml</dc:format>
        <dc:type
           rdf:resource="http://purl.org/dc/dcmitype/StillImage" />
        <dc:title></dc:title>
      </cc:Work>
    </rdf:RDF>
  </metadata>
  <g
     id="layer1"
     inkscape:groupmode="layer"
     inkscape:label="Capa 1">
    <path
       sodipodi:nodetypes="ccczcczczczcczcccc"
       inkscape:connector-curvature="0"
       id="path4589"
       d="m 126.23338,296.77584 c 60.83429,-9.99257 77.29393,-61.41942 71.23352,-107.2892 -2.42114,5.92548 -5.71512,11.96021 -11.39536,16.48896 9.85073,-33.76573 -6.82533,-50.99804 -15.48423,-67.10696 -8.65887,-16.10893 -29.66574,-28.32337 -12.99136,-52.684096 -17.0364,12.160456 -25.30264,39.001496 -9.43676,65.427866 -3.42099,-1.24036 -15.23196,-5.09072 -15.84304,-35.74933 C 131.70508,85.204493 123.7997,51.913881 96.530353,35.242558 100.91364,45.284375 108.26427,91.806276 93.033061,98.559024 77.801858,105.31182 87.62779,69.860983 87.62779,69.860983 77.771701,80.477564 72.053296,98.771853 72.432899,113.22322 c 0.379558,14.45133 -1.136108,27.26547 -13.770449,37.66426 4.893437,-19.92674 -4.948525,-30.07915 -15.236163,-35.52777 8.371996,9.34088 10.590805,22.46994 -2.692871,37.98142 -13.283723,15.51147 -31.0319464,40.46791 -9.103039,80.35973 -5.759722,-1.07398 -12.607549,-4.52159 -19.019841,-14.49219 2.088039,17.10282 9.296825,63.16497 75.538743,77.56717 z"
       style="opacity:1;fill:#8a0d00;fill-opacity:1;fill-rule:evenodd;stroke:none;stroke-width:0.264583px;stroke-linecap:butt;stroke-linejoin:miter;stroke-opacity:1;filter:url(#filter1691)" />
    <path
       style="opacity:1;fill:#7a0c00;fill-opacity:1;fill-rule:evenodd;stroke:none;stroke-width:0.264583px;stroke-linecap:butt;stroke-linejoin:miter;stroke-opacity:1;filter:url(#filter1703)"
       d="m 119.90548,296.77584 c 42.15398,-6.92416 53.55937,-42.55943 49.35992,-74.34404 -1.67768,4.10595 -3.96018,8.28761 -7.8962,11.42572 6.82588,-23.39732 -4.72948,-35.33813 -10.7295,-46.5005 -6.00001,-11.16237 -20.55632,-19.62614 -9.00212,-36.50644 -11.80505,8.42636 -17.53298,27.02535 -6.53902,45.33699 -2.37052,-0.85948 -10.5547,-3.52751 -10.97814,-24.77181 -0.42343,-21.24429 -5.90131,-44.31243 -24.797095,-55.86452 3.037315,6.95829 8.130795,39.19481 -2.42338,43.874 -10.554139,4.67923 -3.745465,-19.88577 -3.745465,-19.88577 -6.82957,7.35657 -10.792031,20.03324 -10.528992,30.04704 0.263008,10.01377 -0.787245,18.89309 -9.541973,26.09874 3.390815,-13.80787 -3.428986,-20.84278 -10.557611,-24.6183 5.801216,6.47259 7.338698,15.57012 -1.865974,26.31851 -9.204705,10.74838 -21.503002,28.04147 -6.307779,55.68376 -3.991091,-0.7442 -8.736163,-3.13315 -13.17944,-10.04209 1.446867,11.85107 6.44206,43.76898 52.343125,53.74871 z"
       id="path1629"
       inkscape:connector-curvature="0"
       sodipodi:nodetypes="ccczcczczczcczcccc" />
    <path
       sodipodi:nodetypes="ccczcczczczcczcccc"
       inkscape:connector-curvature="0"
       id="path1631"
       d="m 115.11929,296.77584 c 28.0248,-4.60332 35.60734,-28.29436 32.81546,-49.42541 -1.11536,2.72972 -2.63281,5.50977 -5.24955,7.59605 4.53798,-15.55501 -3.14426,-23.4935 -7.13319,-30.91447 -3.98892,-7.42097 -13.66625,-13.04785 -5.98479,-24.27021 -7.84823,5.60201 -11.65627,17.96699 -4.34727,30.14094 -1.57597,-0.5714 -7.01697,-2.34517 -7.29848,-16.46879 -0.28151,-14.12364 -3.92332,-29.4598 -16.48561,-37.13986 2.01927,4.62601 5.40551,26.05749 -1.611113,29.16831 -7.016603,3.11085 -2.49006,-13.22046 -2.49006,-13.22046 -4.540435,4.8908 -7.174759,13.31851 -6.999885,19.97588 0.174852,6.65735 -0.523376,12.56051 -6.343696,17.35096 2.254283,-9.17974 -2.279658,-13.85669 -7.018911,-16.36673 3.856765,4.30311 4.878914,10.35132 -1.240537,17.49707 -6.119472,7.14574 -14.295627,18.64254 -4.193537,37.01968 -2.653358,-0.49475 -5.807977,-2.08298 -8.761956,-6.67618 0.961905,7.87883 4.282809,29.0985 34.798758,35.73322 z"
       style="opacity:1;fill:#680b00;fill-opacity:1;fill-rule:evenodd;stroke:none;stroke-width:0.264583px;stroke-linecap:butt;stroke-linejoin:miter;stroke-opacity:1;filter:url(#filter1715)" />
  </g>
</svg>
