<?xml version="1.0" encoding="UTF-8" standalone="no"?>
<!-- Created with Inkscape (http://www.inkscape.org/) -->

<svg
   xmlns:dc="http://purl.org/dc/elements/1.1/"
   xmlns:cc="http://creativecommons.org/ns#"
   xmlns:rdf="http://www.w3.org/1999/02/22-rdf-syntax-ns#"
   xmlns:svg="http://www.w3.org/2000/svg"
   xmlns="http://www.w3.org/2000/svg"
   xmlns:sodipodi="http://sodipodi.sourceforge.net/DTD/sodipodi-0.dtd"
   xmlns:inkscape="http://www.inkscape.org/namespaces/inkscape"
   width="3.7716191mm"
   height="5.2916393mm"
   viewBox="0 0 3.7716191 5.2916392"
   version="1.1"
   id="svg4655"
   inkscape:version="0.92.1 r15371"
   sodipodi:docname="logo_menu.svg">
  <defs
     id="defs4649" />
  <sodipodi:namedview
     id="base"
     pagecolor="#333333"
     bordercolor="#666666"
     borderopacity="1.0"
     inkscape:pageopacity="0"
     inkscape:pageshadow="2"
     inkscape:zoom="1"
     inkscape:cx="264.22161"
     inkscape:cy="53.618292"
     inkscape:document-units="mm"
     inkscape:current-layer="g4523"
     showgrid="false"
     showborder="true"
     inkscape:snap-midpoints="false"
     inkscape:snap-intersection-paths="true"
     inkscape:window-width="1920"
     inkscape:window-height="1027"
     inkscape:window-x="1016"
     inkscape:window-y="-8"
     inkscape:window-maximized="1"
     showguides="true"
     inkscape:guide-bbox="true"
     fit-margin-top="0"
     fit-margin-left="0"
     fit-margin-right="0"
     fit-margin-bottom="0" />
  <metadata
     id="metadata4652">
    <rdf:RDF>
      <cc:Work
         rdf:about="">
        <dc:format>image/svg+xml</dc:format>
        <dc:type
           rdf:resource="http://purl.org/dc/dcmitype/StillImage" />
        <dc:title></dc:title>
      </cc:Work>
    </rdf:RDF>
  </metadata>
  <g
     inkscape:label="Capa 1"
     inkscape:groupmode="layer"
     id="layer1"
     style="display:inline"
     transform="translate(-11.984345,-255.71517)">
    <g
       id="g4729"
       inkscape:export-filename="E:\PC\Documentos\WEB\proyectos\extintores\diseño\logos\logo-4.png"
       inkscape:export-xdpi="7.7399998"
       inkscape:export-ydpi="7.7399998"
       transform="matrix(0.44284093,0,0,0.44284093,-900.33608,-497.05232)"
       style="stroke-width:2.25814724">
      <g
         style="fill:#ffffff;fill-opacity:1;stroke:none;stroke-width:29.87340546;stroke-miterlimit:4;stroke-dasharray:none;stroke-opacity:1"
         id="g4523">
        <g
           aria-label="CR"
           style="font-style:normal;font-variant:normal;font-weight:normal;font-stretch:normal;font-size:219.66386414px;line-height:1.25;font-family:AlternateGothicEF-NoTwo;-inkscape-font-specification:AlternateGothicEF-NoTwo;letter-spacing:0px;word-spacing:0px;display:inline;fill:#ffffff;fill-opacity:1;stroke:none;stroke-width:29.87340546;stroke-miterlimit:4;stroke-dasharray:none;stroke-opacity:1"
           id="text4517" />
        <path
           inkscape:connector-curvature="0"
           d="m 2064.2751,1708.4926 -0.2151,0.6303 q -0.02,0.055 -0.04,0.1035 -0.02,0.049 -0.049,0.085 -0.028,0.037 -0.07,0.058 -0.042,0.021 -0.1058,0.021 v -0.1418 q 0.022,0 0.037,-0.01 0.015,-0.01 0.026,-0.027 0.012,-0.016 0.02,-0.037 0.01,-0.021 0.017,-0.042 l -0.2198,-0.6396 h 0.1838 l 0.1139,0.4198 0.013,-0.037 0.1035,-0.3826 z m 2.4552,0.1349 q 0,0.147 -0.058,0.2449 -0.053,0.098 -0.1202,0.1604 -0.08,0.071 -0.1737,0.1157 0.1158,0.031 0.2093,0.098 0.076,0.058 0.1425,0.1604 0.067,0.1024 0.067,0.2716 v 0.9575 h -0.8016 q 0,-0.04 0,-0.1648 0,-0.1247 0,-0.2672 0,-0.1425 0,-0.2627 0,-0.1247 0,-0.1604 0,-0.1202 0,-0.1825 0,-0.067 -0.036,-0.098 -0.027,-0.031 -0.089,-0.036 -0.058,0 -0.1692,0 h -0.3652 v 1.1757 h -0.7972 v -3.3891 h 1.4028 q 0.2762,0 0.432,0.076 0.1604,0.071 0.2361,0.1826 0.08,0.1113 0.098,0.2361 0.022,0.1246 0.022,0.2315 z m -0.7972,-0.4899 q 0,-0.098 0,-0.1514 0,-0.053 -0.031,-0.08 -0.022,-0.027 -0.076,-0.031 -0.053,0 -0.1514,0 h -0.334 v 0.9664 h 0.3652 q 0.085,0 0.1291,0 0.049,0 0.071,-0.031 0.022,-0.027 0.027,-0.085 0,-0.062 0,-0.1737 z m -2.0363,2.4984 h -0.3385 -0.5433 -0.053 q -0.2762,0 -0.432,-0.071 -0.1559,-0.076 -0.2316,-0.1826 -0.076,-0.1069 -0.098,-0.2316 -0.018,-0.1247 -0.018,-0.2316 v -0.6458 -0.668 -0.6368 q 0,-0.1025 0.018,-0.2271 0.022,-0.1248 0.098,-0.2316 0.076,-0.1114 0.2271,-0.1826 0.1514,-0.076 0.4142,-0.076 h 1.2069 l -0.2672,0.6145 h -0.7081 q -0.076,0 -0.1158,0.01 -0.04,0.01 -0.062,0.036 -0.018,0.027 -0.022,0.08 0,0.049 0,0.1381 v 1.63 q 0,0.093 0,0.1469 0,0.053 0.027,0.08 0.027,0.027 0.076,0.031 0.053,0 0.1515,0 h 0.9352 z m 0.099,-10.7762 c 0.2007,0.4597 0.5372,2.5896 -0.1601,2.8987 -0.6973,0.3092 -0.2475,-1.3138 -0.2475,-1.3138 -0.4512,0.486 -0.713,1.3236 -0.6956,1.9852 0.017,0.6616 -0.052,1.2482 -0.6305,1.7243 0.2241,-0.9123 -0.2265,-1.3771 -0.6975,-1.6265 0.3833,0.4276 0.4849,1.0287 -0.1233,1.7388 -0.6082,0.7102 -1.4207,1.8527 -0.4167,3.679 -0.2637,-0.049 -0.5772,-0.207 -0.8708,-0.6634 0.094,0.7691 0.4141,2.8177 3.3002,3.5148 a 3.0411091,3.0411091 0 0 1 -2.0059,-2.8554 3.0411091,3.0411091 0 0 1 3.0412,-3.0411 3.0411091,3.0411091 0 0 1 3.0411,3.0411 3.0411091,3.0411091 0 0 1 -2.0391,2.8676 c 2.6739,-0.5107 3.3985,-2.8223 3.1256,-4.8878 -0.1109,0.2713 -0.2617,0.5476 -0.5217,0.7549 0.4509,-1.5458 -0.3125,-2.3348 -0.7089,-3.0722 -0.3965,-0.7375 -1.3582,-1.2967 -0.5948,-2.412 -0.78,0.5567 -1.1584,1.7855 -0.432,2.9954 -0.1567,-0.057 -0.6974,-0.2331 -0.7254,-1.6367 -0.028,-1.4036 -0.3899,-2.9277 -1.6383,-3.6909 z"
           style="font-style:normal;font-variant:normal;font-weight:900;font-stretch:normal;font-size:medium;line-height:1.25;font-family:'Paragon Black';-inkscape-font-specification:'Paragon Heavy';letter-spacing:0px;word-spacing:0px;fill:#ffffff;fill-opacity:1;stroke:none;stroke-width:29.87340546;stroke-miterlimit:4;stroke-dasharray:none;stroke-opacity:1"
           id="path4509" />
      </g>
    </g>
  </g>
</svg>
