<?xml version="1.0" standalone="no"?>
<!DOCTYPE svg PUBLIC "-//W3C//DTD SVG 1.1//EN" "http://www.w3.org/Graphics/SVG/1.1/DTD/svg11.dtd" >
<svg xmlns="http://www.w3.org/2000/svg" xmlns:xlink="http://www.w3.org/1999/xlink" version="1.1">
<metadata>
Created by FontForge 20181214 at Wed May  7 17:32:07 2014
 By convertio
Copyright (c) 2014 by Tino Mendes. All rights reserved.
</metadata>
<defs>
<font id="ParagonMedium" horiz-adv-x="250" >
  <font-face 
    font-family="Paragon Medium"
    font-weight="500"
    font-stretch="normal"
    units-per-em="1000"
    panose-1="2 0 0 0 0 0 0 0 0 0"
    ascent="750"
    descent="-250"
    x-height="541"
    cap-height="760"
    bbox="0 -228 874 775"
    underline-thickness="50"
    underline-position="-100"
    unicode-range="U+0020-00E7"
  />
<missing-glyph 
 />
    <glyph glyph-name=".notdef" 
 />
    <glyph glyph-name=".null" horiz-adv-x="0" 
 />
    <glyph glyph-name="nonmarkingreturn" 
 />
    <glyph glyph-name="space" unicode=" " 
 />
    <glyph glyph-name="space" unicode="&#xa0;" 
 />
    <glyph glyph-name="A" unicode="A" horiz-adv-x="525" 
d="M475 0h-95v237h-235v-237h-95v588q0 93 51 138t160 45t161 -45t52 -138zM380 577q0 26 -5 47t-18 36t-36 23t-59 8q-38 0 -61 -7t-35.5 -21.5t-16.5 -36t-4 -49.5v-260h235v260z" />
    <glyph glyph-name="M" unicode="M" horiz-adv-x="800" 
d="M579 770q63 0 97 -21.5t49.5 -53t18.5 -68t3 -66.5v-561h-95v558q0 21 -1.5 44t-9 42.5t-23.5 32t-46 12.5q-8 0 -22 -1t-31 -4t-36 -9.5t-36 -16.5v-658h-95v578v13q0 20 -3 37.5t-12 31t-25 21.5t-42 8q-7 0 -20.5 -1t-30 -4t-35 -9.5t-36.5 -16.5v-658h-95v701
q33 26 66.5 40t63.5 20.5t55 7.5t41 1q44 0 73 -10.5t48 -28.5q27 15 53.5 22.5t50 11.5t43 4.5t32.5 0.5z" />
    <glyph glyph-name="B" unicode="B" horiz-adv-x="548" 
d="M58 0v760h269q55 0 87 -9.5t48.5 -29.5t21 -50.5t4.5 -72.5v-95q0 -32 -6.5 -54t-14.5 -36q-10 -16 -21 -25q16 -7 28 -22q11 -13 19.5 -36t8.5 -60v-116q0 -45 -4.5 -74.5t-22 -47t-53 -25t-97.5 -7.5h-172h-95zM406 262q0 27 -2 43.5t-9.5 25.5t-21.5 12.5t-38 3.5
h-182v-267h180q24 0 38.5 2.5t22 11t10 25.5t2.5 47v96zM153 680v-253h193q17 0 26.5 5t14 15t5 25t0.5 36v117q0 27 -8 41t-42 14h-189z" />
    <glyph glyph-name="U" unicode="U" horiz-adv-x="522" 
d="M42 760h95v-577q0 -29 4 -50t17 -35.5t35.5 -21.5t60.5 -7q36 0 59 8t36 23t18 36t5 47v577h94v-584q0 -95 -51 -141t-162 -46t-160 46t-51 141v7v577z" />
    <glyph glyph-name="R" unicode="R" horiz-adv-x="549" 
d="M153 0h-95v760h76h19h187q49 0 78 -9.5t44 -28t19.5 -46t4.5 -63.5v-177q0 -33 -6.5 -51.5t-14.5 -28.5q-10 -11 -21 -15q16 -5 28 -18q11 -11 20 -33t9 -59v-231h-96v215q0 27 -2 43.5t-9.5 25.5t-22 12.5t-38.5 3.5h-180v-300zM153 680v-300h192q16 0 25.5 3t13.5 9.5
t5 18t1 29.5v159q0 30 -1.5 46t-9 24t-23.5 9.5t-45 1.5h-158z" />
    <glyph glyph-name="G" unicode="G" horiz-adv-x="521" 
d="M266 -11q-113 0 -162 47t-49 146v416q0 39 4 69t18.5 51t41.5 31.5t72 10.5h132h162l-37 -81h-98q-38 0 -84 1h-18q-36 0 -56 -1.5t-29.5 -9t-11 -24t-1.5 -47.5v-301v-115q0 -28 4 -49.5t16.5 -35.5t35.5 -21.5t61 -7.5q36 0 59 8t36 23t18 36t5 47v118h-108l35 80h168
v-198q0 -99 -50.5 -146t-163.5 -47z" />
    <glyph glyph-name="E" unicode="E" horiz-adv-x="475" 
d="M48 598q0 39 4 69t18.5 51t41.5 31.5t72 10.5h256l-34 -80h-91h-74h-30q-17 0 -30 -2t-21.5 -10.5t-12.5 -25t-4 -44.5v-170h264l-35 -81h-229v-57v-129q0 -28 1 -44t8 -24t21.5 -10.5t41.5 -2.5h62h48h105l-35 -80h-69h-143h-183h182q-50 0 -77 12t-39.5 34t-15 51
t-2.5 64v437z" />
    <glyph glyph-name="F" unicode="F" horiz-adv-x="491" 
d="M70 0v598q0 39 4 69t18.5 51t41.5 31.5t72 10.5h257l-35 -80h-91h-74h-30q-17 0 -30 -2t-21.5 -10.5t-12.5 -25t-4 -44.5v-170h150h115l-36 -81h-229v-347h-95z" />
    <glyph glyph-name="O" unicode="O" horiz-adv-x="508" 
d="M251 -11q-111 0 -161 46.5t-50 142.5v402q0 97 49.5 144t161.5 47t162.5 -47t50.5 -144v-402q0 -97 -50.5 -143t-162.5 -46zM135 183q0 -29 4 -50t16.5 -35.5t35.5 -21.5t61 -7q36 0 59 8t36 23t18 36t5 47v394q0 26 -5 47.5t-18 36.5t-36 23t-59 8q-38 0 -61 -7.5
t-35.5 -21.5t-16.5 -36t-4 -50v-394z" />
    <glyph glyph-name="N" unicode="N" horiz-adv-x="528" 
d="M146 0h-95v702q32 26 69 40t71.5 20.5t63 7.5t44.5 1q64 0 99.5 -19.5t51.5 -49.5t19 -67t3 -72v-563h-95v584q0 23 -2.5 42.5t-12 33.5t-27.5 22t-49 8q-9 0 -25.5 -1t-36 -4t-40 -9t-38.5 -16v-660z" />
    <glyph glyph-name="T" unicode="T" horiz-adv-x="577" 
d="M241 680h-216v80h527v-80h-216v-680h-95v680z" />
    <glyph glyph-name="S" unicode="S" horiz-adv-x="495" 
d="M247 69q65 0 91.5 30.5t26.5 83.5q0 43 -24.5 74t-61 57.5t-79.5 51t-79.5 54.5t-61 69.5t-24.5 95.5q0 43 12 77.5t37.5 58.5t65.5 37t96 13q113 0 163.5 -47t50.5 -147h-95q0 26 -5 47.5t-18 36.5t-36 23t-59 8q-66 0 -91.5 -29t-25.5 -86q0 -41 24.5 -70.5t61 -54.5
t79.5 -49.5t79.5 -55.5t61 -72t24.5 -100q0 -42 -12.5 -76t-38.5 -58.5t-66.5 -38t-96.5 -13.5q-113 0 -162 47.5t-49 146.5h95q0 -57 24.5 -85.5t92.5 -28.5z" />
    <glyph glyph-name="I" unicode="I" horiz-adv-x="215" 
d="M155 760v-760h-95v760h95v0z" />
    <glyph glyph-name="V" unicode="V" horiz-adv-x="537" 
d="M318 0h-95l-213 760h95l165 -628l163 628h94l-209 -760v0z" />
    <glyph glyph-name="c" unicode="c" horiz-adv-x="479" 
d="M127 221q0 -33 1 -62t11 -51t33.5 -35t67.5 -13q40 0 62.5 9.5t34 26t14.5 38.5t3 48h85q0 -44 -6 -79.5t-26 -60.5t-60 -38.5t-107 -13.5q-68 0 -107 17.5t-59.5 48.5t-26 73t-5.5 92v142h1q2 41 10.5 75.5t30 59.5t59 39t97.5 14q59 0 97.5 -12.5t61 -36.5t31.5 -60
t9 -83h-85q0 25 -3 47.5t-14.5 39t-34.5 26t-62 9.5t-61 -10t-33.5 -27.5t-15 -41t-3.5 -50.5v-131v0z" />
    <glyph glyph-name="d" unicode="d" horiz-adv-x="483" 
d="M35 367q0 60 21.5 101t62 62t98.5 21.5t130 -19.5v220h85v-531q0 -50 -6 -92t-26 -73t-60 -48.5t-107 -17.5t-106.5 17.5t-59.5 48t-26 72.5t-6 91v148zM347 465q-60 21 -103 21.5t-70.5 -13.5t-40.5 -42t-13 -64v-146q0 -34 2 -63.5t12.5 -51t33.5 -34t65 -12.5
q43 0 66 12t33.5 32.5t12.5 48t2 58.5v254z" />
    <glyph glyph-name="j" unicode="j" horiz-adv-x="296" 
d="M140 541h85v-526q0 -41 -7.5 -83.5t-29 -77t-60.5 -56t-101 -21.5v70q40 0 63 19t34 45.5t13.5 55t2.5 48.5v526zM184 676q-20 0 -34.5 15t-14.5 35t14.5 34.5t34.5 14.5t34.5 -14.5t14.5 -34.5t-14.5 -35t-34.5 -15z" />
    <glyph glyph-name="k" unicode="k" horiz-adv-x="459" 
d="M428 540l-194 -208l216 -332h-107l-166 273l-50 -54v-219h-85v760h85v-418l187 198h114z" />
    <glyph glyph-name="l" unicode="l" horiz-adv-x="185" 
d="M135 0h-85v760h85v-760z" />
    <glyph glyph-name="q" unicode="q" horiz-adv-x="462" 
d="M28 361h20h-20q0 91 48.5 140.5t136.5 49.5q72 0 164 -36l48 -19v-714h-85v228q-43 -20 -114 -20q-67 0 -106.5 17.5t-59.5 48t-26 72.5t-6 91v142zM340 459q-63 22 -110 22q-61 0 -89 -33t-28 -87v-140q0 -35 2 -64t12.5 -51t33.5 -34t65 -12q39 0 62 10t34.5 27.5
t14.5 41t3 50.5v270z" />
    <glyph glyph-name="w" unicode="w" horiz-adv-x="819" 
d="M197 0l-187 541h95l132 -421l125 421h96l121 -421l133 421h97l-189 -541h-88l-122 413l-125 -413h-48h-40z" />
    <glyph glyph-name="x" unicode="x" horiz-adv-x="479" 
d="M124 541l117 -207l117 207h109l-176 -271l176 -270h-111l-115 195l-115 -195h-114l177 269l-177 272h112v0z" />
    <glyph glyph-name="y" unicode="y" horiz-adv-x="494" 
d="M379 541h101l-201 -570q-14 -41 -28 -75.5t-34.5 -60t-50.5 -40t-77 -14.5v65q30 0 49 16t31 40t19 51.5t13 50.5l-187 537h102l129 -428l47 162z" />
    <glyph glyph-name="z" unicode="z" horiz-adv-x="409" 
d="M377 0h-116h-17h-92h-67q-22 0 -37.5 13t-15.5 39q0 16 6.5 36t23.5 44l225 330h-221l-34 79h117h25h92h39q29 0 46.5 -13.5t17.5 -39.5q0 -14 -5.5 -31.5t-19.5 -38.5l-224 -342h234z" />
    <glyph glyph-name="H" unicode="H" horiz-adv-x="536" 
d="M147 0h-95v760h95v-333h235v333h95v-760h-95v347h-235v-347z" />
    <glyph glyph-name="h" unicode="h" horiz-adv-x="469" 
d="M438 0h-85v371q0 29 -7 49.5t-24 34t-46 20t-73 6.5h-76v-481h-85v760h85v-209h76q69 0 114 -11t72 -33.5t38 -55.5t11 -77v-374z" />
    <glyph glyph-name="m" unicode="m" horiz-adv-x="703" 
d="M45 520q92 31 164 31q69 0 116 -29q45 15 84 22t73 7q86 0 133.5 -45t47.5 -136v-370h-85v366q0 54 -26.5 87t-86.5 33q-40 0 -92 -16q11 -20 17.5 -45t6.5 -55v-370h-86v366q0 54 -28 87t-90 33q-26 0 -63 -8v-478h-85v450v70z" />
    <glyph glyph-name="b" unicode="b" horiz-adv-x="457" 
d="M428 220q0 -49 -6 -91t-26 -73t-60 -48.5t-107 -17.5q-68 0 -107.5 17.5t-59.5 48t-26 72.5t-6 92v540h85v-228q35 10 66.5 14.5t59.5 4.5q89 0 138 -46.5t49 -138.5v-146zM343 366q0 54 -28.5 87t-89.5 33q-47 0 -110 -22v-252q0 -31 2 -58.5t12.5 -48.5t33.5 -33
t66 -12t66 12.5t33.5 34t12.5 51t2 64.5v144z" />
    <glyph glyph-name="r" unicode="r" horiz-adv-x="363" 
d="M42 360q0 52 9 86.5t34 55.5t67.5 30t110.5 9h96l-36 -71h-54q-43 0 -70.5 -4.5t-43.5 -16.5t-22 -33.5t-6 -55.5v-360h-85v360v0z" />
    <glyph glyph-name="g" unicode="g" horiz-adv-x="472" 
d="M427 502v-533q0 -44 -7.5 -80.5t-29 -62.5t-60.5 -40t-102 -14q-54 0 -92 11.5t-61.5 33t-34 52.5t-10.5 70h85q0 -19 3.5 -36.5t15.5 -31t34.5 -21.5t59.5 -8q43 0 66 13t34 36t13 54t2 66q-43 -20 -114 -20q-68 0 -107.5 17.5t-59.5 48.5t-26 73t-6 91v145
q0 92 49 138.5t137 46.5q35 0 76.5 -7.5t87.5 -23.5zM343 464q-63 22 -110 22q-61 0 -89.5 -33t-28.5 -87v-143q0 -35 2 -64.5t12.5 -51t33.5 -34t66 -12.5q39 0 62 10t34 28t14.5 41.5t3.5 50.5v32v241z" />
    <glyph glyph-name="e" unicode="e" horiz-adv-x="468" 
d="M120 249v-27q0 -35 2 -64t12.5 -51t33.5 -34t66 -12q65 0 89 26.5t24 74.5h17t23 0.5t24 0.5h21q0 -39 -9 -70.5t-31.5 -54t-61 -35t-96.5 -12.5q-68 0 -107.5 17.5t-59.5 48t-26 72.5t-6 92v98q0 50 5.5 92.5t26 73.5t60 48.5t107.5 17.5q63 0 102 -17t60.5 -47.5
t29 -74t7.5 -96.5v-67h-313zM234 481q-43 0 -66 -12.5t-33.5 -33.5t-12.5 -49t-2 -60v-10h228q0 42 -3.5 73t-15 51.5t-34 30.5t-61.5 10z" />
    <glyph glyph-name="f" unicode="f" horiz-adv-x="316" 
d="M272 469h-127v-469h-84v591q0 64 13 100t38.5 53t63 20.5t86.5 3.5q11 0 18.5 -1t14.5 -3v-67h-9q-4 0 -9 0.5t-10 0.5q-42 0 -66.5 -8t-36.5 -23t-15.5 -36.5t-3.5 -49.5v-41h163z" />
    <glyph glyph-name="o" unicode="o" horiz-adv-x="468" 
d="M433 222q0 -50 -5.5 -92.5t-26 -73.5t-60 -48.5t-107.5 -17.5t-107 17.5t-59.5 48.5t-26 73t-5.5 92v141q0 41 8.5 76t30.5 60t60.5 39t98.5 14t98 -14t59.5 -39t30.5 -60t11 -76v-140zM348 319q0 34 -2 64t-12.5 51.5t-33.5 34t-66 12.5q-39 0 -61.5 -10t-34.5 -27.5
t-15 -41.5t-3 -51v-140q0 -31 2 -58.5t12.5 -48t33.5 -32.5t66 -12t66 12.5t33.5 34t12.5 51t2 64.5v97z" />
    <glyph glyph-name="n" unicode="n" horiz-adv-x="483" 
d="M440 0h-85v365q0 57 -39.5 89.5t-109.5 32.5q-38 0 -79 -10v-477h-85v519q98 32 179 32q48 0 88 -11.5t69.5 -34.5t45.5 -57.5t16 -81.5v-366z" />
    <glyph glyph-name="t" unicode="t" horiz-adv-x="310" 
d="M130 760v-219h142l-36 -72h-106v-249q0 -47 4.5 -78t16.5 -49t34.5 -25.5t58.5 -7.5h28v-66q-11 -4 -33 -4q-70 0 -109 20t-58 52t-23 73.5t-4 84.5v540h85z" />
    <glyph glyph-name="s" unicode="s" horiz-adv-x="429" 
d="M214 55q42 0 67 15.5t25 57.5q0 28 -19.5 49t-49.5 39.5t-64 37t-64 40.5t-49.5 50.5t-19.5 68.5q0 71 46.5 104.5t127.5 33.5q80 0 127.5 -35.5t47.5 -110.5h-79q0 22 -7.5 36.5t-20.5 23t-30.5 11.5t-37.5 3q-18 0 -34.5 -2.5t-29 -10t-20 -20.5t-7.5 -33
q0 -28 19.5 -48t49.5 -38t64 -35.5t64 -40t49.5 -52t19.5 -71.5q0 -70 -47.5 -104t-127.5 -34q-81 0 -127.5 35.5t-46.5 110.5h83q0 -47 24.5 -64t66.5 -17z" />
    <glyph glyph-name="i" unicode="i" horiz-adv-x="199" 
d="M142 0h-86v541h86v-541zM50 720q0 21 14.5 35.5t34.5 14.5q21 0 35.5 -14.5t14.5 -35.5q0 -20 -14.5 -34.5t-35.5 -14.5q-20 0 -34.5 14.5t-14.5 34.5z" />
    <glyph glyph-name="v" unicode="v" horiz-adv-x="484" 
d="M374 541h97l-190 -541h-80l-188 541h96l132 -421z" />
    <glyph glyph-name="one" unicode="1" horiz-adv-x="352" 
d="M171 681h-121l36 79h180v-760h-95v681z" />
    <glyph glyph-name="two" unicode="2" horiz-adv-x="502" 
d="M258 691q-66 0 -92 -29t-26 -86h-95q0 100 49.5 147.5t162.5 47.5t163.5 -47.5t50.5 -146.5v-1q0 -44 -13 -79.5t-34.5 -66t-49 -56.5t-56 -51.5t-56 -50.5t-49 -53.5t-34.5 -61.5t-14 -73h331l-34 -84h-407v20q0 91 23.5 154.5t59.5 110t77.5 80.5t77 65.5t59.5 65.5
t24 80q0 26 -5 47.5t-18 36.5t-36 23t-59 8z" />
    <glyph glyph-name="three" unicode="3" horiz-adv-x="619" 
d="M396 378q44 -24 63 -70t19 -124q0 -100 -50.5 -147.5t-163.5 -47.5t-162.5 47.5t-49.5 147.5h95q0 -57 26 -86t92 -29q36 0 59 8t36 23t18 36.5t5 47.5q0 27 -3.5 56t-21 52t-54.5 38t-104 15v81q58 0 94 9.5t55.5 28.5t26.5 47t7 65q0 26 -5 47.5t-18 36.5t-36 23t-59 8
q-66 0 -92 -29t-26 -86h-95q0 100 49.5 147.5t162.5 47.5q48 0 86.5 -10t66 -32.5t43.5 -59t18 -90.5v-3q0 -75 -19.5 -122t-62.5 -76z" />
    <glyph glyph-name="four" unicode="4" horiz-adv-x="566" 
d="M343 236h-307v80l307 444h95v-444h98l-34 -80h-64v-236h-95v236zM343 316v325q-31 -45 -66 -96.5t-66.5 -98.5t-55.5 -82.5t-32 -47.5h220z" />
    <glyph glyph-name="zero" unicode="0" horiz-adv-x="496" 
d="M234 -10q-69 0 -109.5 27t-62 77t-27.5 121.5t-6 160.5q0 93 6 166.5t27.5 124t62 77t109.5 26.5h7q70 0 111 -25t62 -74.5t26.5 -123t5.5 -171.5q0 -88 -4.5 -159.5t-24.5 -121.5t-61.5 -77.5t-114.5 -27.5h-7zM237 700q-37 0 -58.5 -17t-32.5 -55.5t-14 -100.5t-3 -151
q0 -90 3 -150.5t14 -97.5t32.5 -52.5t58.5 -15.5q40 0 62 16t32.5 53t12.5 97.5t2 149.5q0 88 -2 149.5t-12.5 100.5t-32.5 56.5t-62 17.5z" />
    <glyph glyph-name="C" unicode="C" horiz-adv-x="473" 
d="M60 598q0 39 4 69t18.5 51t41.5 31.5t72 10.5h250l-34 -80h-84h-74q-37 0 -57 -1.5t-29.5 -9t-11 -24t-1.5 -47.5v-133v-177v-126q0 -28 1.5 -44t8 -24.5t21.5 -10.5t42 -2h59h61h98l-35 -81h-217q-50 0 -77 12.5t-39.5 34t-15 51t-2.5 64.5v436z" />
    <glyph glyph-name="D" unicode="D" horiz-adv-x="516" 
d="M56 0v759l13 1h202q105 0 153 -40.5t48 -134.5v-416q0 -47 -12 -78.5t-37 -51.5t-63.5 -29t-91.5 -10h-10h-202zM377 583q0 25 -4.5 43.5t-16.5 30.5t-33.5 17.5t-54.5 5.5h-117v-600h117q33 0 54.5 5t33.5 16.5t16.5 29t4.5 43.5v409z" />
    <glyph glyph-name="J" unicode="J" horiz-adv-x="516" 
d="M253 -10q-113 0 -162.5 47.5t-49.5 147.5h95q0 -29 4 -50.5t17 -35.5t36 -21.5t61 -7.5q36 0 59 8t36 23t18 36.5t5 47.5v575h95v-575q0 -100 -50.5 -147.5t-163.5 -47.5z" />
    <glyph glyph-name="K" unicode="K" horiz-adv-x="610" 
d="M150 391l308 369h117l-258 -312l286 -448h-124l-230 368l-99 -118v-250h-95v760h95v-369z" />
    <glyph glyph-name="L" unicode="L" horiz-adv-x="448" 
d="M310 80h105l-34 -80h-205q-50 0 -77 12.5t-39.5 34t-15 51t-2.5 64.5v598h95v-598q0 -28 1.5 -44t8 -24.5t21.5 -11t42 -2.5h62h38z" />
    <glyph glyph-name="X" unicode="X" horiz-adv-x="582" 
d="M11 761h117l163 -294l164 293h117l-222 -380l222 -380h-117l-164 301l-164 -301h-117l223 380z" />
    <glyph glyph-name="W" unicode="W" horiz-adv-x="884" 
d="M187 0l-177 760h110l122 -621l150 621h95l150 -621l134 621h103l-182 -760h-109l-144 593l-142 -593h-110z" />
    <glyph glyph-name="P" unicode="P" horiz-adv-x="537" 
d="M332 760q49 0 78 -9.5t44 -28t19.5 -46.5t4.5 -64v-176q0 -31 -4 -56t-18 -43t-40 -27.5t-70 -9.5h-197v-300h-95v760h70h25h183zM382 598q0 30 -1.5 46t-9 24t-24 9.5t-45.5 1.5h-153v-299h187q17 0 26.5 3t14 11t5 21.5t0.5 33.5v13v136z" />
    <glyph glyph-name="Q" unicode="Q" horiz-adv-x="539" 
d="M481 -70l-81 -32q-3 3 -13.5 13t-24 24t-29 29.5l-29.5 29.5q-14 -2 -30 -3.5t-34 -1.5q-112 0 -162 46t-50 142v398q0 99 49.5 147.5t162.5 48.5t163.5 -48.5t50.5 -147.5v-398q-1 -108 -67 -153zM359 574q0 26 -5 47.5t-18 37t-36 24t-59 8.5q-38 0 -61 -7.5t-36 -22.5
t-17 -37t-4 -50v-390q0 -29 4 -50.5t17 -35.5t36 -21.5t61 -7.5q36 0 59 8t36 23t18 36.5t5 47.5v390z" />
    <glyph glyph-name="Y" unicode="Y" horiz-adv-x="557" 
d="M230 381l-225 380h110l163 -293l164 292h110l-227 -379v-381h-95v381z" />
    <glyph glyph-name="Z" unicode="Z" horiz-adv-x="534" 
d="M349 760h68q39 0 61.5 -17.5t22.5 -50.5q0 -23 -12.5 -53.5t-38.5 -67.5l-341 -476h362l39 -95h-168h-254q-35 0 -54.5 22t-19.5 57q0 26 11.5 55.5t36.5 59.5l334 470h-346l-39 96h170h35h133z" />
    <glyph glyph-name="period" unicode="." horiz-adv-x="185" 
d="M125 101v-101h-115v101h115v0z" />
    <glyph glyph-name="comma" unicode="," horiz-adv-x="185" 
d="M10 101h115v-101h-1q-3 -7 -10 -27.5t-14.5 -43t-13 -42.5t-5.5 -26l-59 1l32 138h-44v101z" />
    <glyph glyph-name="exclam" unicode="!" horiz-adv-x="275" 
d="M185 211h-95v549h95v-549zM195 101v-101h-115v101h115z" />
    <glyph glyph-name="question" unicode="?" horiz-adv-x="538" 
d="M207 101h116v-101h-116v101zM478 577q0 -48 -12.5 -83t-30.5 -62.5t-39 -51t-39 -48.5t-30 -55t-12 -71h-100q0 48 12.5 84t31 65t40 53.5t40.5 49.5t31.5 53.5t12.5 64.5q0 26 -5 47t-18 36t-36 23t-59 8q-66 0 -92 -28.5t-26 -85.5h-95q0 100 49.5 147.5t162.5 47.5
t163.5 -47.5t50.5 -146.5z" />
    <glyph glyph-name="Ccedilla" unicode="&#xc7;" horiz-adv-x="473" 
d="M196 0q-50 0 -77.5 12.5t-40.5 34t-15.5 51t-2.5 64.5v435q0 39 4 69.5t18.5 51.5t41.5 31.5t72 10.5h250l-34 -81h-84h-74h-7q-34 0 -52.5 -1.5t-27.5 -9t-10.5 -24t-1.5 -46.5v-127v-179v-130q0 -28 1.5 -44t8 -24.5t21.5 -11t42 -2.5h59h41h111l-35 -80h-119v-196
l-80 35v161h-9v0z" />
    <glyph glyph-name="ccedilla" unicode="&#xe7;" horiz-adv-x="468" 
d="M194 -7q-54 5 -85 24.5t-47.5 50t-21 70t-4.5 84.5v140q0 41 8.5 76t30.5 60t60.5 39t98.5 14q59 0 97.5 -12.5t61 -37t31.5 -60.5t9 -83h-85q0 25 -3 47.5t-14.5 39.5t-34.5 26.5t-62 9.5t-61.5 -10t-34.5 -27.5t-15 -41.5t-3 -51v-139q0 -31 2 -58.5t12.5 -48
t33.5 -32.5t66 -12q40 0 62.5 9.5t34 26t14.5 39t3 48.5h85q0 -41 -4.5 -74.5t-21 -58.5t-48 -40t-85.5 -19v-186l-80 35v152z" />
    <glyph glyph-name="five" unicode="5" horiz-adv-x="514" 
d="M244 82q49 0 83 19t51.5 48t18.5 62.5t-15 62.5t-49.5 48t-85.5 19h-46h-1h-1q-42 0 -70 7t-44.5 23t-23.5 41t-7 61h-1v141h1q0 45 6 73.5t23.5 44.5t47.5 22t77 6h153h45q17 0 31 0.5t15 0.5l-35 -82h-171q-33 0 -52 -2t-29 -10.5t-12.5 -26.5t-2.5 -49v-66
q0 -31 2 -49t11 -27t26.5 -11t48.5 -2q2 0 3 1h30q70 0 118.5 -33t73 -81.5t26 -105t-21 -105t-70 -80.5t-120.5 -32h-89h-130l29 82h157z" />
    <glyph glyph-name="six" unicode="6" horiz-adv-x="536" 
d="M486 181q-1 -98 -51.5 -145t-162.5 -47q-113 0 -162.5 47.5t-49.5 147.5v392q0 100 49.5 147.5t162.5 47.5t163.5 -47.5t50.5 -147.5h-95q0 26 -5 47.5t-18 36.5t-36 23t-59 8q-66 0 -92 -28.5t-26 -86.5v-146q45 19 117 19q112 0 162.5 -47t51.5 -145v-76zM273 69
q36 0 59 8t36 23t18 36.5t5 47.5v70q0 26 -5 47.5t-18 36.5t-36 23t-59 8q-66 0 -92 -29t-26 -86v-70q0 -57 26 -86t92 -29z" />
    <glyph glyph-name="seven" unicode="7" horiz-adv-x="524" 
d="M379 681h-342l35 80h196h72h67.5t55.5 -0.5t37 -0.5l-227 -760h-98z" />
    <glyph glyph-name="eight" unicode="8" horiz-adv-x="546" 
d="M486 559q-1 -52 -15.5 -89.5t-45.5 -61.5q61 -46 61 -150v-79q-1 -97 -51.5 -143.5t-162.5 -46.5t-161.5 46.5t-50.5 143.5v79q0 104 59 150q-28 23 -43.5 57t-15.5 82v29q0 100 49.5 147.5t162.5 47.5q112 0 162 -46t52 -142v-24zM155 563q0 -57 26 -85.5t92 -28.5
q36 0 59 8t36 23t18 36t5 47v13q0 26 -5 47.5t-18 36.5t-36 23t-59 8q-66 0 -92 -28.5t-26 -86.5v-13zM273 69q36 0 59 8t36 23t18 36.5t5 47.5v69q0 26 -5 47.5t-18 36.5t-36 23t-59 8q-66 0 -91.5 -28t-26.5 -85v-73q1 -57 26.5 -85t91.5 -28z" />
    <glyph glyph-name="nine" unicode="9" horiz-adv-x="526" 
d="M476 184q0 -100 -50.5 -147.5t-163.5 -47.5t-162.5 47.5t-49.5 147.5h95q0 -57 26 -86t92 -29q36 0 59 8t36 23t18 36.5t5 47.5v152q-44 -20 -119 -20q-113 0 -162.5 47.5t-49.5 146.5v66q0 100 49.5 147.5t162.5 47.5q111 0 161.5 -46t52.5 -142v-399zM381 576
q0 26 -5 47t-18 36t-36 23t-59 8q-66 0 -92 -28t-26 -85v-67q0 -57 26 -85.5t92 -28.5q36 0 59 8t36 23t18 36t5 47v66z" />
    <glyph glyph-name="a" unicode="a" horiz-adv-x="488" 
d="M452 23q-99 -33 -188 -33q-50 0 -91.5 9.5t-72.5 30.5t-48 54.5t-17 80.5q0 41 17 68.5t45 44t64 23.5t74 7q35 0 68 -5t64 -18v69q0 18 -3 40t-16 41t-40 31.5t-75 12.5q-110 0 -110 -92h-83q0 33 11.5 62.5t35.5 52t62 36t91 13.5q68 0 109.5 -16.5t64 -43t30.5 -60.5
t8 -69v-339zM367 199q-11 14 -47.5 25.5t-84.5 11.5q-22 0 -42.5 -4t-36 -12.5t-25 -22.5t-9.5 -34q0 -56 42 -82.5t113 -26.5q42 0 90 12v133z" />
    <glyph glyph-name="u" unicode="u" horiz-adv-x="465" 
d="M434 541v-516q-50 -17 -97 -25.5t-89 -8.5q-48 0 -87.5 11t-68.5 34t-45 57.5t-16 81.5v366h86v-123t0.5 -92t0.5 -65.5v-42.5v-42q0 -57 38 -88.5t107 -31.5q20 0 41 3t44 8v474h86z" />
    <glyph glyph-name="p" unicode="p" horiz-adv-x="470" 
d="M84 520q92 31 164 31q88 0 137 -46.5t49 -138.5v-146q0 -49 -6 -91t-26 -73t-60 -48.5t-107 -17.5q-37 0 -65 5.5t-49 15.5v-229h-85v719zM235 61q42 0 65 12t33.5 34t12.5 51t2 64v144q0 54 -28 87t-89 33q-47 0 -110 -22v-273q0 -27 3 -51t14.5 -41.5t34.5 -27.5
t62 -10z" />
    <glyph glyph-name="quotesingle" unicode="'" horiz-adv-x="174" 
d="M1 761h115v-101h-1q-3 -7 -10 -27.5t-14.5 -43t-13 -42.5t-5.5 -26l-59 1l32 138h-44v101zM116 660h-115v101h115v-101z" />
    </font>
</defs>
</svg>
